<svg xmlns="http://www.w3.org/2000/svg" version="1.1" xmlns:xlink="http://www.w3.org/1999/xlink" xmlns:svgjs="http://svgjs.com/svgjs" width="1920" height="1080" preserveAspectRatio="none" viewBox="0 0 1920 1080"><g mask="url(&quot;#SvgjsMask1026&quot;)" fill="none"><rect width="1920" height="1080" x="0" y="0" fill="#0e2a47"></rect><path d="M282.09 270C348.37 131.91 336.46 100.02 432 0C465.41 -34.98 486 0 540 0C591.43 0 592.57 -8.49 642.86 0C727.57 14.3 740.19 -1.47 810 45.58C940.51 133.53 929.96 154.97 1043.51 270C1064.96 291.72 1059.59 296.35 1080 319.09C1180.8 431.35 1185.56 427.33 1285.93 540C1320.56 578.87 1316.69 622.17 1350 622.17C1385.07 622.17 1421.32 589.92 1422.69 540C1426.14 413.84 1389.98 405.24 1359.64 270C1353.64 243.24 1362.81 239.92 1350 216C1290.49 104.92 1215 70.59 1215 0C1215 -37.41 1282.5 0 1350 0C1485 0 1485 0 1620 0C1755 0 1755 0 1890 0C2025 0 2092.5 -67.5 2160 0C2227.5 67.5 2160 135 2160 270C2160 353.08 2208.26 429.26 2160 436.15C2073.26 448.54 1987.61 280.16 1890 308.57C1809.21 332.08 1870.99 441.02 1803.21 540C1735.99 638.16 1711.32 621.11 1620 702.86C1560.51 756.11 1501.58 745.08 1501.58 810C1501.58 919.19 1536.07 1048.08 1620 1051.07C1730.28 1055 1752.84 934.06 1890 823.85C1902.84 813.53 1906.27 819.15 1920 810C2041.27 729.15 2083.53 643.85 2160 643.85C2203.53 643.85 2160 726.92 2160 810C2160 945 2227.5 1012.5 2160 1080C2092.5 1147.5 2025 1080 1890 1080C1755 1080 1755 1080 1620 1080C1485 1080 1485 1080 1350 1080C1215 1080 1215 1080 1080 1080C945 1080 945 1080 810 1080C728.29 1080 646.58 1116.53 646.58 1080C646.58 1025.21 731.6 991.31 810 897.35C844.25 856.31 871.88 849.72 871.88 810C871.88 779.99 836.42 788.33 810 757.89C719.23 653.33 730.65 642.08 637.5 540C595.65 494.14 594.72 462 540 462C445.69 462 354.8 467.1 339.43 540C318.11 641.1 436.14 668.3 466.63 810C494.24 938.3 513.91 999.97 455.63 1080C415.59 1134.97 362.82 1080 270 1080C135 1080 67.5 1147.5 0 1080C-67.5 1012.5 0 945 0 810C0 686.91 -26.15 668.41 0 563.82C7.6 533.41 40.5 562.63 67.5 540C175.5 449.47 183.43 446.42 270 337.5C290.73 311.42 267.37 300.66 282.09 270" stroke="rgba(36, 88, 143, 1)" stroke-width="2"></path><path d="M382.84 270C382.84 185.24 439.32 114.19 540 81.96C652.9 45.82 690.01 78.53 810 133.25C896.16 172.55 887.54 195.99 952.3 270C1022.54 350.28 1012.63 358.85 1080 441.82C1122.24 493.85 1128.84 488.29 1171.53 540C1263.84 651.83 1260.47 654.69 1350 768.91C1366.29 789.69 1383.16 785.17 1383.16 810C1383.16 900.22 1385.74 914.47 1350 999C1328.66 1049.47 1319.95 1064.72 1269 1080C1184.95 1105.22 1174.5 1080 1080 1080C975 1080 883.75 1135.02 870 1080C850 1000.02 1028.57 927.97 1012.5 810C998.57 707.7 905.07 730.73 810 639.47C764.44 595.73 777.32 583.08 731.25 540C642.32 456.84 636.78 462 540 387C462.58 327 382.84 337.76 382.84 270" stroke="rgba(36, 88, 143, 1)" stroke-width="2"></path><path d="M1600.71 270C1604.9 251.15 1609.77 236.25 1620 236.25C1630.67 236.25 1638.45 250.35 1642.5 270C1669.79 402.23 1691.29 415.42 1682.68 540C1680.04 578.27 1651.85 595.71 1620 595.71C1586.76 595.71 1554.83 579.4 1552.5 540C1545.19 416.54 1571.15 403.02 1600.71 270" stroke="rgba(36, 88, 143, 1)" stroke-width="2"></path><path d="M0 762.35C116.9 677.69 157.69 600.87 270 614.48C354.32 624.7 383.11 704.98 393.26 810C405.61 937.74 368.13 963.63 315 1080C306.5 1098.63 292.5 1080 270 1080C210 1080 196.85 1109.28 150 1080C61.85 1024.91 51.78 1004.45 0 911.25C-23.22 869.45 0 860.63 0 810C0 786.17 -18.1 775.45 0 762.35" stroke="rgba(36, 88, 143, 1)" stroke-width="2"></path><path d="M1794.71 1080C1794.71 1056.31 1837.7 996.92 1890 996.92C1962.49 996.92 2044.29 1057.91 2044.29 1080C2044.29 1099.45 1967.14 1080 1890 1080C1842.36 1080 1794.71 1097.85 1794.71 1080" stroke="rgba(36, 88, 143, 1)" stroke-width="2"></path><path d="M483.58 270C483.58 239.58 499.96 208.52 540 202.5C663.17 183.98 682.77 194.16 810 220.91C843.31 227.91 861.08 238.02 861.08 270C861.08 367.56 874.96 471.5 810 480C714.42 492.5 673.65 397.98 540 312C510.44 292.98 483.58 294.33 483.58 270" stroke="rgba(36, 88, 143, 1)" stroke-width="2"></path><path d="M142.5 810C142.5 762.15 215.37 730.86 270 730.86C304.06 730.86 319.89 767.82 319.89 810C319.89 874.89 308.73 945 270 945C220.03 945 142.5 869.22 142.5 810" stroke="rgba(36, 88, 143, 1)" stroke-width="2"></path></g><defs><mask id="SvgjsMask1026"><rect width="1920" height="1080" fill="#ffffff"></rect></mask></defs></svg>