<?xml version="1.0" encoding="UTF-8"?>
<!DOCTYPE svg PUBLIC "-//W3C//DTD SVG 1.1//EN" "http://www.w3.org/Graphics/SVG/1.1/DTD/svg11.dtd">
<svg xmlns="http://www.w3.org/2000/svg" version="1.1" width="6000px" height="3375px" style="shape-rendering:geometricPrecision; text-rendering:geometricPrecision; image-rendering:optimizeQuality; fill-rule:evenodd; clip-rule:evenodd" xmlns:xlink="http://www.w3.org/1999/xlink">
<g><path style="opacity:1" fill="#0e2a47" d="M -0.5,-0.5 C 447.833,-0.5 896.167,-0.5 1344.5,-0.5C 1287.2,59.6349 1233.7,122.968 1184,189.5C 1146.04,244.083 1112.71,301.416 1084,361.5C 1049.73,440.058 1017.06,519.392 986,599.5C 950.102,685.947 912.102,771.28 872,855.5C 865.233,872.168 861.733,889.501 861.5,907.5C 862.515,927.623 864.682,947.623 868,967.5C 870.524,990.251 866.191,1011.58 855,1031.5C 849.687,1039.64 844.187,1047.64 838.5,1055.5C 788.764,1117.88 738.264,1179.88 687,1241.5C 620.573,1320.76 548.406,1394.76 470.5,1463.5C 379.581,1541.92 287.581,1619.08 194.5,1695C 171.881,1707.59 147.547,1713.76 121.5,1713.5C 96.8426,1712.24 72.176,1711.74 47.5,1712C 23.9233,1715.1 7.92331,1727.6 -0.5,1749.5C -0.5,1166.17 -0.5,582.833 -0.5,-0.5 Z"/></g>
<g><path style="opacity:1" fill="#0f2a47" d="M 1352.5,-0.5 C 1448.17,-0.5 1543.83,-0.5 1639.5,-0.5C 1663.27,2.16523 1687.27,3.16523 1711.5,2.5C 1730.36,2.1606 1749.02,1.1606 1767.5,-0.5C 1842.17,-0.5 1916.83,-0.5 1991.5,-0.5C 2030.15,6.70987 2069.15,12.5432 2108.5,17C 2162.86,22.086 2217.19,27.4194 2271.5,33C 2312.9,38.9127 2352.9,49.9127 2391.5,66C 2421.71,79.7684 2451.04,95.1018 2479.5,112C 2564.59,167.216 2647.26,225.883 2727.5,288C 2768.07,321.236 2807.4,355.903 2845.5,392C 2880.6,427.438 2914.77,463.938 2948,501.5C 3020.47,587.649 3094.81,672.316 3171,755.5C 3203.43,789.757 3236.26,823.424 3269.5,856.5C 3278.86,867.354 3288.02,878.354 3297,889.5C 3310.5,910.5 3323.5,931.833 3336,953.5C 3341.33,960.833 3346.67,968.167 3352,975.5C 3478.15,1118.32 3608.49,1257.32 3743,1392.5C 3793.67,1446.5 3844.33,1500.5 3895,1554.5C 3937.68,1601.87 3980.34,1649.21 4023,1696.5C 4050.02,1730.89 4073.02,1767.89 4092,1807.5C 4101.14,1829.1 4110.8,1850.43 4121,1871.5C 4129.66,1888.16 4139.83,1903.82 4151.5,1918.5C 4169.53,1938.01 4191.87,1947.35 4218.5,1946.5C 4274.16,1944.78 4322.16,1924.94 4362.5,1887C 4407.27,1842.96 4434.77,1789.79 4445,1727.5C 4454.52,1615.91 4448.18,1505.24 4426,1395.5C 4417.77,1362.91 4408.43,1330.58 4398,1298.5C 4371.84,1228.16 4345.84,1157.83 4320,1087.5C 4306.08,1045.82 4293.08,1003.82 4281,961.5C 4269.39,918.394 4258.72,875.06 4249,831.5C 4247.29,820.88 4245.96,810.213 4245,799.5C 4244.86,776.812 4244.19,754.146 4243,731.5C 4239.8,715.568 4234.8,700.235 4228,685.5C 4181.78,599.641 4128.78,518.308 4069,441.5C 4014.75,375.248 3959.75,309.582 3904,244.5C 3884.83,219.66 3866.83,193.994 3850,167.5C 3825.74,128.084 3809.74,85.4178 3802,39.5C 3800.5,26.2081 3799.67,12.8748 3799.5,-0.5C 3919.5,-0.5 4039.5,-0.5 4159.5,-0.5C 4175.31,1.15466 4191.31,2.15466 4207.5,2.5C 4210.17,2.5 4212.83,2.5 4215.5,2.5C 4794.17,2.66667 5372.83,2.5 5951.5,2C 5962.35,1.49119 5973.01,0.657857 5983.5,-0.5C 5988.83,-0.5 5994.17,-0.5 5999.5,-0.5C 5999.5,316.833 5999.5,634.167 5999.5,951.5C 5947.6,946.912 5898.94,957.078 5853.5,982C 5810.69,1009.71 5783.19,1048.54 5771,1098.5C 5764.66,1123.84 5760,1149.51 5757,1175.5C 5752.33,1234.16 5747.67,1292.83 5743,1351.5C 5736.92,1412.02 5725.25,1471.36 5708,1529.5C 5693.32,1573.29 5674.66,1614.96 5652,1654.5C 5606.77,1725.75 5555.44,1792.41 5498,1854.5C 5459.75,1893 5418.58,1927.84 5374.5,1959C 5308.6,2001.11 5244.27,2045.45 5181.5,2092C 5132.01,2130.48 5084.01,2170.82 5037.5,2213C 5004.98,2238.75 4970.65,2261.75 4934.5,2282C 4886.85,2305.41 4839.51,2329.41 4792.5,2354C 4764.08,2369.75 4739.92,2390.25 4720,2415.5C 4700.68,2444.46 4690.35,2476.46 4689,2511.5C 4687.18,2647.92 4702.85,2782.26 4736,2914.5C 4753.25,2980.26 4777.59,3043.26 4809,3103.5C 4831.49,3145 4859.66,3182.17 4893.5,3215C 4955.03,3271.71 5027.7,3295.38 5111.5,3286C 5181.83,3279.67 5245.5,3256.01 5302.5,3215C 5344.64,3182.63 5383.47,3146.46 5419,3106.5C 5472.75,3043.67 5525.08,2979.67 5576,2914.5C 5637.72,2838.18 5703.22,2765.35 5772.5,2696C 5817.89,2652 5865.22,2610.33 5914.5,2571C 5930.41,2559.69 5948.07,2552.69 5967.5,2550C 5972.83,2548 5978.17,2546 5983.5,2544C 5988.52,2540.46 5993.85,2537.63 5999.5,2535.5C 5999.5,2730.83 5999.5,2926.17 5999.5,3121.5C 5973.15,3115.87 5946.49,3112.87 5919.5,3112.5C 5914.68,3111.83 5909.68,3111.5 5904.5,3111.5C 5895.95,3111.39 5887.62,3112.06 5879.5,3113.5C 5854.41,3116.27 5830.41,3122.77 5807.5,3133C 5719.85,3175.42 5655.69,3240.92 5615,3329.5C 5609.74,3341.6 5606.58,3354.27 5605.5,3367.5C 5604.6,3368.21 5604.26,3369.21 5604.5,3370.5C 5603.02,3370.76 5601.69,3370.43 5600.5,3369.5C 5601.63,3367.57 5601.3,3367.23 5599.5,3368.5C 5064.83,3368.5 4530.17,3368.5 3995.5,3368.5C 4021.51,3359.34 4046.85,3348.5 4071.5,3336C 4107.55,3314.95 4136.72,3286.78 4159,3251.5C 4174.94,3224.28 4189.28,3196.28 4202,3167.5C 4233.07,3096.68 4261.4,3024.68 4287,2951.5C 4308.9,2883.95 4321.06,2814.61 4323.5,2743.5C 4324.45,2671.51 4324.78,2599.51 4324.5,2527.5C 4326.04,2501.75 4317.04,2480.58 4297.5,2464C 4282.17,2453.33 4266.83,2442.67 4251.5,2432C 4244.87,2426.34 4238.37,2420.5 4232,2414.5C 4169.49,2334.79 4107.49,2254.79 4046,2174.5C 3959.73,2057.2 3871.06,1941.53 3780,1827.5C 3744.36,1783.86 3708.7,1740.19 3673,1696.5C 3634.53,1649.04 3593.7,1603.88 3550.5,1561C 3512.31,1526.15 3475.48,1489.98 3440,1452.5C 3358.78,1359.33 3283.78,1261.66 3215,1159.5C 3174.1,1094.33 3130.77,1030.99 3085,969.5C 3047.47,921.97 3008.47,875.637 2968,830.5C 2934.96,791.411 2903.13,751.411 2872.5,710.5C 2841.38,665.867 2808.88,622.201 2775,579.5C 2740.37,540.52 2701.2,507.02 2657.5,479C 2620.77,456.631 2582.77,436.297 2543.5,418C 2462.12,380.809 2381.12,342.809 2300.5,304C 2249.1,279.789 2196.76,258.122 2143.5,239C 2080.05,217.036 2014.72,205.536 1947.5,204.5C 1924.78,205.004 1902.11,206.337 1879.5,208.5C 1868.58,209.439 1857.92,211.105 1847.5,213.5C 1804.08,219.585 1761.41,229.085 1719.5,242C 1646.07,263.024 1576.07,292.024 1509.5,329C 1431.16,373.694 1363.99,431.194 1308,501.5C 1225.45,610.524 1187.45,733.857 1194,871.5C 1200.38,917.431 1221.21,955.264 1256.5,985C 1281.72,1003.78 1308.72,1019.78 1337.5,1033C 1372.4,1048.42 1407.73,1063.09 1443.5,1077C 1491.33,1096.95 1538,1119.29 1583.5,1144C 1613.35,1161.42 1642.35,1180.09 1670.5,1200C 1772.93,1279.59 1876.93,1357.09 1982.5,1432.5C 2104.13,1525.15 2218.96,1625.48 2327,1733.5C 2343.79,1752.44 2359.63,1772.1 2374.5,1792.5C 2392.32,1820.8 2409.66,1849.47 2426.5,1878.5C 2445.92,1908.67 2467.75,1937 2492,1963.5C 2559.22,2034.41 2634.88,2094.41 2719,2143.5C 2774.45,2174.81 2831.28,2203.31 2889.5,2229C 2913.71,2241.27 2938.04,2253.27 2962.5,2265C 2994.07,2281.27 3023.73,2300.27 3051.5,2322C 3100.61,2363.03 3133.44,2414.53 3150,2476.5C 3172.95,2562.49 3166.62,2646.16 3131,2727.5C 3114.49,2764.1 3094.83,2798.76 3072,2831.5C 3037.62,2878.57 3000.62,2923.57 2961,2966.5C 2903.88,3025.28 2848.55,3085.62 2795,3147.5C 2771.91,3176.68 2751.58,3207.68 2734,3240.5C 2718.79,3270.32 2710.96,3301.99 2710.5,3335.5C 2710.1,3345.46 2711.1,3355.13 2713.5,3364.5C 2713.5,3365.83 2713.5,3367.17 2713.5,3368.5C 2649.01,3370.17 2584.34,3371.17 2519.5,3371.5C 2500.63,3371.51 2481.96,3372.51 2463.5,3374.5C 2316.83,3374.5 2170.17,3374.5 2023.5,3374.5C 2023.43,3350.46 2028.26,3327.46 2038,3305.5C 2053.71,3274.45 2073.38,3246.12 2097,3220.5C 2117.26,3199.89 2138.09,3179.72 2159.5,3160C 2217.22,3110.27 2274.88,3060.61 2332.5,3011C 2379.96,2967.65 2426.13,2922.82 2471,2876.5C 2502.65,2841.18 2533.98,2805.51 2565,2769.5C 2589.95,2743.55 2615.78,2718.71 2642.5,2695C 2661.16,2677.68 2678.33,2659.18 2694,2639.5C 2723.31,2597.72 2732.98,2551.72 2723,2501.5C 2716.93,2485.76 2706.77,2473.26 2692.5,2464C 2666.41,2450.29 2639.74,2437.62 2612.5,2426C 2580.12,2410.4 2552.28,2388.9 2529,2361.5C 2449.41,2269.92 2374.41,2174.92 2304,2076.5C 2232.15,1968.97 2153.82,1866.31 2069,1768.5C 2035.33,1730.83 2001.67,1693.17 1968,1655.5C 1954.4,1638.61 1941.07,1621.61 1928,1604.5C 1904.92,1569.75 1879.92,1536.42 1853,1504.5C 1841.22,1492.86 1828.72,1482.02 1815.5,1472C 1788.45,1455.65 1759.12,1445.65 1727.5,1442C 1628.65,1438.13 1529.98,1440.63 1431.5,1449.5C 1425.95,1449.53 1420.62,1450.19 1415.5,1451.5C 1347.35,1456.94 1281.68,1472.44 1218.5,1498C 1105.81,1548.01 1049.48,1635.18 1049.5,1759.5C 1049.36,1800.34 1056.86,1839.68 1072,1877.5C 1087.26,1912.04 1105.6,1944.71 1127,1975.5C 1135.91,1986.99 1144.58,1998.65 1153,2010.5C 1201.16,2068.64 1248.49,2127.31 1295,2186.5C 1334.59,2239.65 1368.59,2296.32 1397,2356.5C 1421.68,2411.54 1440.68,2468.54 1454,2527.5C 1469.34,2598.17 1484.67,2668.84 1500,2739.5C 1509.31,2786.06 1517.97,2832.72 1526,2879.5C 1534.63,2935.18 1538.63,2991.18 1538,3047.5C 1535.69,3133.4 1514.36,3214.07 1474,3289.5C 1457.32,3318.88 1439.15,3347.21 1419.5,3374.5C 1275.5,3374.5 1131.5,3374.5 987.5,3374.5C 999.438,3348.06 1011.6,3321.73 1024,3295.5C 1057.75,3228.66 1092.09,3162 1127,3095.5C 1149.26,3051.98 1169.59,3007.65 1188,2962.5C 1217.64,2884.37 1234.31,2803.37 1238,2719.5C 1241.19,2572.09 1225.53,2426.75 1191,2283.5C 1174.26,2216.57 1148.92,2153.24 1115,2093.5C 1089.97,2052.98 1059.14,2017.65 1022.5,1987.5C 970.657,1948.43 912.324,1925.09 847.5,1917.5C 844.124,1915.92 840.458,1915.25 836.5,1915.5C 723.773,1901.37 617.439,1920.87 517.5,1974C 472.34,1999.41 429.34,2028.08 388.5,2060C 359.191,2083.97 329.858,2107.97 300.5,2132C 217.682,2205.01 133.015,2275.51 46.5,2343.5C 30.8151,2354.86 15.1484,2366.19 -0.5,2377.5C -0.5,2175.83 -0.5,1974.17 -0.5,1772.5C 2.18325,1762.8 5.34992,1753.14 9,1743.5C 18.3477,1727.23 32.5143,1718.73 51.5,1718C 72.8478,1717.69 94.1811,1718.19 115.5,1719.5C 144.507,1721.45 171.507,1715.29 196.5,1701C 206.451,1694.05 216.117,1686.72 225.5,1679C 282.883,1630.94 340.216,1582.94 397.5,1535C 440.437,1498.36 482.77,1461.03 524.5,1423C 555.36,1393.47 585.527,1363.31 615,1332.5C 649.677,1293.49 684.01,1254.15 718,1214.5C 762.573,1159.68 806.907,1104.68 851,1049.5C 869.164,1025.15 876.831,997.821 874,967.5C 871.095,948.593 869.261,929.593 868.5,910.5C 868.217,892.199 871.383,874.533 878,857.5C 940.384,725.689 997.717,591.689 1050,455.5C 1076.08,389.929 1106.74,326.596 1142,265.5C 1167.34,224.485 1194.68,184.818 1224,146.5C 1238.04,130.124 1251.71,113.457 1265,96.5C 1294.06,63.9459 1323.23,31.6126 1352.5,-0.5 Z"/></g>
<g><path style="opacity:1" fill="#25568e" d="M 1639.5,-0.5 C 1663.5,-0.5 1687.5,-0.5 1711.5,-0.5C 1701.01,0.330376 1690.34,0.830376 1679.5,1C 1690.34,1.16962 1701.01,1.66962 1711.5,2.5C 1687.27,3.16523 1663.27,2.16523 1639.5,-0.5 Z"/></g>
<g><path style="opacity:1" fill="#235589" d="M 1711.5,-0.5 C 1730.17,-0.5 1748.83,-0.5 1767.5,-0.5C 1749.02,1.1606 1730.36,2.1606 1711.5,2.5C 1701.01,1.66962 1690.34,1.16962 1679.5,1C 1690.34,0.830376 1701.01,0.330376 1711.5,-0.5 Z"/></g>
<g><path style="opacity:1" fill="#26578d" d="M 4159.5,-0.5 C 4767.5,-0.5 5375.5,-0.5 5983.5,-0.5C 5973.01,0.657857 5962.35,1.49119 5951.5,2C 5372.83,2.5 4794.17,2.66667 4215.5,2.5C 4780.67,1.66672 5346,1.16672 5911.5,1C 5627.5,0.833333 5343.5,0.666667 5059.5,0.5C 4775.17,0.500002 4491.17,1.16667 4207.5,2.5C 4191.31,2.15466 4175.31,1.15466 4159.5,-0.5 Z"/></g>
<g><path style="opacity:1" fill="#215890" d="M 4215.5,2.5 C 4212.83,2.5 4210.17,2.5 4207.5,2.5C 4491.17,1.16667 4775.17,0.500002 5059.5,0.5C 5343.5,0.666667 5627.5,0.833333 5911.5,1C 5346,1.16672 4780.67,1.66672 4215.5,2.5 Z"/></g>
<g><path style="opacity:1" fill="#235080" d="M 1879.5,208.5 C 1869.3,211.396 1858.63,213.062 1847.5,213.5C 1857.92,211.105 1868.58,209.439 1879.5,208.5 Z"/></g>
<g><path style="opacity:1" fill="#0e2a47" d="M 4318.5,2513.5 C 4318.5,2513.83 4318.5,2514.17 4318.5,2514.5C 4318.5,2540.17 4318.5,2565.83 4318.5,2591.5C 4317.67,2568.67 4317.17,2545.67 4317,2522.5C 4316.33,2569.5 4316.33,2616.5 4317,2663.5C 4317.18,2660.64 4317.68,2657.97 4318.5,2655.5C 4318.5,2660.83 4318.5,2666.17 4318.5,2671.5C 4318.64,2695.51 4318.31,2719.51 4317.5,2743.5C 4314.85,2810.19 4303.68,2875.52 4284,2939.5C 4251.53,3036.24 4213.2,3130.57 4169,3222.5C 4158.07,3242.7 4145.4,3261.7 4131,3279.5C 4103.46,3310.27 4070.3,3333.11 4031.5,3348C 4009.74,3357.21 3987.41,3364.71 3964.5,3370.5C 3962.61,3370.7 3961.11,3370.04 3960,3368.5C 3549.09,3368.55 3138.26,3369.22 2727.5,3370.5C 2725.05,3370.7 2722.72,3370.37 2720.5,3369.5C 2714.75,3343.08 2715.25,3316.74 2722,3290.5C 2729.06,3264.95 2739.39,3240.95 2753,3218.5C 2774.22,3184.75 2797.88,3152.75 2824,3122.5C 2876.8,3064.38 2930.13,3007.05 2984,2950.5C 3027.18,2902.99 3066.18,2852.33 3101,2798.5C 3122.89,2762.19 3140.56,2723.86 3154,2683.5C 3177.86,2599.57 3174.2,2516.9 3143,2435.5C 3119.34,2378.86 3082.18,2333.36 3031.5,2299C 3017.37,2289.76 3003.03,2280.76 2988.5,2272C 2941.19,2247.01 2893.19,2223.68 2844.5,2202C 2791.7,2176.94 2740.37,2149.27 2690.5,2119C 2603.72,2064.22 2527.55,1997.38 2462,1918.5C 2452.67,1905.17 2443.33,1891.83 2434,1878.5C 2417.18,1849.53 2399.85,1820.87 2382,1792.5C 2356.56,1756.89 2328.06,1723.89 2296.5,1693.5C 2227.19,1628.6 2156.52,1565.43 2084.5,1504C 2007.18,1442.67 1928.18,1383.67 1847.5,1327C 1791.96,1285.73 1736.96,1243.73 1682.5,1201C 1629.44,1162.29 1573.1,1128.96 1513.5,1101C 1467.79,1081.07 1421.79,1061.73 1375.5,1043C 1340.24,1028.54 1306.57,1011.2 1274.5,991C 1258.84,979.677 1244.67,966.511 1232,951.5C 1212.8,925.442 1202.14,896.109 1200,863.5C 1195.82,697.436 1252.65,556.603 1370.5,441C 1445.86,370.116 1532.19,316.116 1629.5,279C 1692.71,255.459 1757.38,236.793 1823.5,223C 1928.25,202.317 2031.25,208.651 2132.5,242C 2168.5,254.834 2204.17,268.501 2239.5,283C 2353.34,336.158 2467,389.491 2580.5,443C 2620.6,463.545 2658.93,486.878 2695.5,513C 2724.28,536.117 2750.78,561.617 2775,589.5C 2802.22,623.608 2828.22,658.608 2853,694.5C 2884.94,738.17 2918.28,780.836 2953,822.5C 3019.5,896.325 3081.5,973.659 3139,1054.5C 3180.33,1118.49 3222.66,1181.82 3266,1244.5C 3322.78,1322.65 3383.44,1397.98 3448,1470.5C 3490.14,1512.31 3532.47,1553.64 3575,1594.5C 3599.08,1619.91 3622.41,1645.91 3645,1672.5C 3721.17,1764.47 3796.17,1857.47 3870,1951.5C 3940.49,2043.81 4010.49,2136.47 4080,2229.5C 4126.3,2289.14 4172.64,2348.81 4219,2408.5C 4238.73,2430.93 4261.57,2449.43 4287.5,2464C 4296.81,2471.3 4304.64,2479.8 4311,2489.5C 4314.45,2497.33 4316.95,2505.33 4318.5,2513.5 Z"/></g>
<g><path style="opacity:1" fill="#0f2a47" d="M 5999.5,957.5 C 5999.5,1480.83 5999.5,2004.17 5999.5,2527.5C 5989.82,2533.13 5979.82,2538.29 5969.5,2543C 5956.42,2546.35 5943.42,2550.01 5930.5,2554C 5924.67,2557.08 5919,2560.41 5913.5,2564C 5836.06,2625.45 5763.89,2692.28 5697,2764.5C 5669.29,2795.2 5641.96,2826.2 5615,2857.5C 5562.72,2921.46 5510.72,2985.8 5459,3050.5C 5427.31,3088.53 5393.81,3125.03 5358.5,3160C 5320.33,3196.61 5277.33,3226.61 5229.5,3250C 5167.86,3276.42 5103.53,3286.08 5036.5,3279C 4999.17,3273.16 4964.83,3259.82 4933.5,3239C 4896.88,3212.71 4866.05,3180.88 4841,3143.5C 4806.53,3090.56 4779.53,3033.9 4760,2973.5C 4725.2,2862.17 4704.54,2748.17 4698,2631.5C 4695.2,2586.18 4694.87,2540.85 4697,2495.5C 4701.82,2454.41 4719.32,2419.91 4749.5,2392C 4763.67,2380.17 4778.67,2369.5 4794.5,2360C 4803.63,2355.27 4812.63,2350.27 4821.5,2345C 4871.45,2321.94 4920.12,2296.94 4967.5,2270C 4998.06,2251.21 5027.06,2230.21 5054.5,2207C 5120.76,2146.75 5190.42,2091.08 5263.5,2040C 5303.5,2013.33 5343.5,1986.67 5383.5,1960C 5445.91,1915.6 5501.74,1863.77 5551,1804.5C 5587.35,1759.49 5621.35,1712.82 5653,1664.5C 5698.91,1587.61 5728.25,1504.61 5741,1415.5C 5749.99,1343.72 5756.65,1271.72 5761,1199.5C 5763.87,1157.13 5771.87,1115.8 5785,1075.5C 5806.28,1020.9 5845.12,985.062 5901.5,968C 5933.52,958.414 5966.19,954.914 5999.5,957.5 Z"/></g>
<g><path style="opacity:1" fill="#24568c" d="M 4324.5,2527.5 C 4323.7,2521.31 4322.86,2514.98 4322,2508.5C 4321.59,2508.04 4321.09,2507.71 4320.5,2507.5C 4319.52,2509.41 4318.86,2511.41 4318.5,2513.5C 4316.95,2505.33 4314.45,2497.33 4311,2489.5C 4304.64,2479.8 4296.81,2471.3 4287.5,2464C 4261.57,2449.43 4238.73,2430.93 4219,2408.5C 4172.64,2348.81 4126.3,2289.14 4080,2229.5C 4010.49,2136.47 3940.49,2043.81 3870,1951.5C 3796.17,1857.47 3721.17,1764.47 3645,1672.5C 3622.41,1645.91 3599.08,1619.91 3575,1594.5C 3532.47,1553.64 3490.14,1512.31 3448,1470.5C 3383.44,1397.98 3322.78,1322.65 3266,1244.5C 3222.66,1181.82 3180.33,1118.49 3139,1054.5C 3081.5,973.659 3019.5,896.325 2953,822.5C 2918.28,780.836 2884.94,738.17 2853,694.5C 2828.22,658.608 2802.22,623.608 2775,589.5C 2750.78,561.617 2724.28,536.117 2695.5,513C 2658.93,486.878 2620.6,463.545 2580.5,443C 2467,389.491 2353.34,336.158 2239.5,283C 2204.17,268.501 2168.5,254.834 2132.5,242C 2031.25,208.651 1928.25,202.317 1823.5,223C 1757.38,236.793 1692.71,255.459 1629.5,279C 1532.19,316.116 1445.86,370.116 1370.5,441C 1252.65,556.603 1195.82,697.436 1200,863.5C 1202.14,896.109 1212.8,925.442 1232,951.5C 1244.67,966.511 1258.84,979.677 1274.5,991C 1306.57,1011.2 1340.24,1028.54 1375.5,1043C 1421.79,1061.73 1467.79,1081.07 1513.5,1101C 1573.1,1128.96 1629.44,1162.29 1682.5,1201C 1736.96,1243.73 1791.96,1285.73 1847.5,1327C 1928.18,1383.67 2007.18,1442.67 2084.5,1504C 2156.52,1565.43 2227.19,1628.6 2296.5,1693.5C 2328.06,1723.89 2356.56,1756.89 2382,1792.5C 2399.85,1820.87 2417.18,1849.53 2434,1878.5C 2443.33,1891.83 2452.67,1905.17 2462,1918.5C 2527.55,1997.38 2603.72,2064.22 2690.5,2119C 2740.37,2149.27 2791.7,2176.94 2844.5,2202C 2893.19,2223.68 2941.19,2247.01 2988.5,2272C 3003.03,2280.76 3017.37,2289.76 3031.5,2299C 3082.18,2333.36 3119.34,2378.86 3143,2435.5C 3174.2,2516.9 3177.86,2599.57 3154,2683.5C 3140.56,2723.86 3122.89,2762.19 3101,2798.5C 3066.18,2852.33 3027.18,2902.99 2984,2950.5C 2930.13,3007.05 2876.8,3064.38 2824,3122.5C 2797.88,3152.75 2774.22,3184.75 2753,3218.5C 2739.39,3240.95 2729.06,3264.95 2722,3290.5C 2715.25,3316.74 2714.75,3343.08 2720.5,3369.5C 2720.5,3370.17 2720.5,3370.83 2720.5,3371.5C 2718.58,3370.88 2717.42,3369.55 2717,3367.5C 2716.67,3363.17 2716.33,3358.83 2716,3354.5C 2715.85,3358.09 2715.02,3361.42 2713.5,3364.5C 2711.1,3355.13 2710.1,3345.46 2710.5,3335.5C 2710.96,3301.99 2718.79,3270.32 2734,3240.5C 2751.58,3207.68 2771.91,3176.68 2795,3147.5C 2848.55,3085.62 2903.88,3025.28 2961,2966.5C 3000.62,2923.57 3037.62,2878.57 3072,2831.5C 3094.83,2798.76 3114.49,2764.1 3131,2727.5C 3166.62,2646.16 3172.95,2562.49 3150,2476.5C 3133.44,2414.53 3100.61,2363.03 3051.5,2322C 3023.73,2300.27 2994.07,2281.27 2962.5,2265C 2938.04,2253.27 2913.71,2241.27 2889.5,2229C 2831.28,2203.31 2774.45,2174.81 2719,2143.5C 2634.88,2094.41 2559.22,2034.41 2492,1963.5C 2467.75,1937 2445.92,1908.67 2426.5,1878.5C 2409.66,1849.47 2392.32,1820.8 2374.5,1792.5C 2359.63,1772.1 2343.79,1752.44 2327,1733.5C 2218.96,1625.48 2104.13,1525.15 1982.5,1432.5C 1876.93,1357.09 1772.93,1279.59 1670.5,1200C 1642.35,1180.09 1613.35,1161.42 1583.5,1144C 1538,1119.29 1491.33,1096.95 1443.5,1077C 1407.73,1063.09 1372.4,1048.42 1337.5,1033C 1308.72,1019.78 1281.72,1003.78 1256.5,985C 1221.21,955.264 1200.38,917.431 1194,871.5C 1187.45,733.857 1225.45,610.524 1308,501.5C 1363.99,431.194 1431.16,373.694 1509.5,329C 1576.07,292.024 1646.07,263.024 1719.5,242C 1761.41,229.085 1804.08,219.585 1847.5,213.5C 1858.63,213.062 1869.3,211.396 1879.5,208.5C 1902.11,206.337 1924.78,205.004 1947.5,204.5C 2014.72,205.536 2080.05,217.036 2143.5,239C 2196.76,258.122 2249.1,279.789 2300.5,304C 2381.12,342.809 2462.12,380.809 2543.5,418C 2582.77,436.297 2620.77,456.631 2657.5,479C 2701.2,507.02 2740.37,540.52 2775,579.5C 2808.88,622.201 2841.38,665.867 2872.5,710.5C 2903.13,751.411 2934.96,791.411 2968,830.5C 3008.47,875.637 3047.47,921.97 3085,969.5C 3130.77,1030.99 3174.1,1094.33 3215,1159.5C 3283.78,1261.66 3358.78,1359.33 3440,1452.5C 3475.48,1489.98 3512.31,1526.15 3550.5,1561C 3593.7,1603.88 3634.53,1649.04 3673,1696.5C 3708.7,1740.19 3744.36,1783.86 3780,1827.5C 3871.06,1941.53 3959.73,2057.2 4046,2174.5C 4107.49,2254.79 4169.49,2334.79 4232,2414.5C 4238.37,2420.5 4244.87,2426.34 4251.5,2432C 4266.83,2442.67 4282.17,2453.33 4297.5,2464C 4317.04,2480.58 4326.04,2501.75 4324.5,2527.5 Z"/></g>
<g><path style="opacity:1" fill="#24568c" d="M 1991.5,-0.5 C 2004.17,-0.5 2016.83,-0.5 2029.5,-0.5C 2072.48,6.62183 2115.81,11.9552 2159.5,15.5C 2164.65,16.5514 2169.98,17.2181 2175.5,17.5C 2224.62,20.2228 2273.28,26.3895 2321.5,36C 2362.85,46.6635 2402.19,61.9968 2439.5,82C 2469.01,98.841 2498.01,116.508 2526.5,135C 2599.32,183.406 2669.99,234.739 2738.5,289C 2769.51,314.682 2799.84,341.015 2829.5,368C 2859.84,397.677 2889.67,428.177 2919,459.5C 2973.38,521.27 3027.04,583.604 3080,646.5C 3099.32,666.492 3117.99,687.159 3136,708.5C 3185.44,760.935 3235.11,812.935 3285,864.5C 3304.58,889.325 3321.92,915.659 3337,943.5C 3343.33,952.5 3349.67,961.5 3356,970.5C 3478.55,1109.05 3604.89,1244.05 3735,1375.5C 3835.85,1480.68 3934.52,1587.68 4031,1696.5C 4056.02,1728.53 4077.36,1762.86 4095,1799.5C 4106.36,1824.28 4117.69,1848.95 4129,1873.5C 4138.56,1893.12 4151.39,1910.29 4167.5,1925C 4183.03,1936.05 4200.37,1941.22 4219.5,1940.5C 4263.62,1939.07 4303.29,1925.24 4338.5,1899C 4394.8,1854.26 4428.3,1796.09 4439,1724.5C 4446.43,1630.79 4443.1,1537.45 4429,1444.5C 4417.87,1381.46 4400.87,1320.12 4378,1260.5C 4355.38,1201.62 4333.38,1142.62 4312,1083.5C 4283.87,999.559 4260.54,914.226 4242,827.5C 4241.22,820.794 4240.22,814.127 4239,807.5C 4238.67,786.167 4238.33,764.833 4238,743.5C 4236.78,730.085 4233.78,717.085 4229,704.5C 4217.67,679.506 4205,655.172 4191,631.5C 4141.13,548.062 4085.13,469.062 4023,394.5C 3974.19,339.027 3926.86,282.361 3881,224.5C 3859.46,195.435 3840.46,164.768 3824,132.5C 3803.83,90.4943 3793.66,46.1609 3793.5,-0.5C 3795.5,-0.5 3797.5,-0.5 3799.5,-0.5C 3799.67,12.8748 3800.5,26.2081 3802,39.5C 3809.74,85.4178 3825.74,128.084 3850,167.5C 3866.83,193.994 3884.83,219.66 3904,244.5C 3959.75,309.582 4014.75,375.248 4069,441.5C 4128.78,518.308 4181.78,599.641 4228,685.5C 4234.8,700.235 4239.8,715.568 4243,731.5C 4244.19,754.146 4244.86,776.812 4245,799.5C 4245.96,810.213 4247.29,820.88 4249,831.5C 4258.72,875.06 4269.39,918.394 4281,961.5C 4293.08,1003.82 4306.08,1045.82 4320,1087.5C 4345.84,1157.83 4371.84,1228.16 4398,1298.5C 4408.43,1330.58 4417.77,1362.91 4426,1395.5C 4448.18,1505.24 4454.52,1615.91 4445,1727.5C 4434.77,1789.79 4407.27,1842.96 4362.5,1887C 4322.16,1924.94 4274.16,1944.78 4218.5,1946.5C 4191.87,1947.35 4169.53,1938.01 4151.5,1918.5C 4139.83,1903.82 4129.66,1888.16 4121,1871.5C 4110.8,1850.43 4101.14,1829.1 4092,1807.5C 4073.02,1767.89 4050.02,1730.89 4023,1696.5C 3980.34,1649.21 3937.68,1601.87 3895,1554.5C 3844.33,1500.5 3793.67,1446.5 3743,1392.5C 3608.49,1257.32 3478.15,1118.32 3352,975.5C 3346.67,968.167 3341.33,960.833 3336,953.5C 3323.5,931.833 3310.5,910.5 3297,889.5C 3288.02,878.354 3278.86,867.354 3269.5,856.5C 3236.26,823.424 3203.43,789.757 3171,755.5C 3094.81,672.316 3020.47,587.649 2948,501.5C 2914.77,463.938 2880.6,427.438 2845.5,392C 2807.4,355.903 2768.07,321.236 2727.5,288C 2647.26,225.883 2564.59,167.216 2479.5,112C 2451.04,95.1018 2421.71,79.7684 2391.5,66C 2352.9,49.9127 2312.9,38.9127 2271.5,33C 2217.19,27.4194 2162.86,22.086 2108.5,17C 2069.15,12.5432 2030.15,6.70987 1991.5,-0.5 Z"/></g>
<g><path style="opacity:1" fill="#14375d" d="M 2159.5,15.5 C 2165.1,15.1557 2170.43,15.8224 2175.5,17.5C 2169.98,17.2181 2164.65,16.5514 2159.5,15.5 Z"/></g>
<g><path style="opacity:1" fill="#0f2a47" d="M 2029.5,-0.5 C 2617.5,-0.5 3205.5,-0.5 3793.5,-0.5C 3793.66,46.1609 3803.83,90.4943 3824,132.5C 3840.46,164.768 3859.46,195.435 3881,224.5C 3926.86,282.361 3974.19,339.027 4023,394.5C 4085.13,469.062 4141.13,548.062 4191,631.5C 4205,655.172 4217.67,679.506 4229,704.5C 4233.78,717.085 4236.78,730.085 4238,743.5C 4238.33,764.833 4238.67,786.167 4239,807.5C 4240.22,814.127 4241.22,820.794 4242,827.5C 4260.54,914.226 4283.87,999.559 4312,1083.5C 4333.38,1142.62 4355.38,1201.62 4378,1260.5C 4400.87,1320.12 4417.87,1381.46 4429,1444.5C 4443.1,1537.45 4446.43,1630.79 4439,1724.5C 4428.3,1796.09 4394.8,1854.26 4338.5,1899C 4303.29,1925.24 4263.62,1939.07 4219.5,1940.5C 4200.37,1941.22 4183.03,1936.05 4167.5,1925C 4151.39,1910.29 4138.56,1893.12 4129,1873.5C 4117.69,1848.95 4106.36,1824.28 4095,1799.5C 4077.36,1762.86 4056.02,1728.53 4031,1696.5C 3934.52,1587.68 3835.85,1480.68 3735,1375.5C 3604.89,1244.05 3478.55,1109.05 3356,970.5C 3349.67,961.5 3343.33,952.5 3337,943.5C 3321.92,915.659 3304.58,889.325 3285,864.5C 3235.11,812.935 3185.44,760.935 3136,708.5C 3117.99,687.159 3099.32,666.492 3080,646.5C 3027.04,583.604 2973.38,521.27 2919,459.5C 2889.67,428.177 2859.84,397.677 2829.5,368C 2799.84,341.015 2769.51,314.682 2738.5,289C 2669.99,234.739 2599.32,183.406 2526.5,135C 2498.01,116.508 2469.01,98.841 2439.5,82C 2402.19,61.9968 2362.85,46.6635 2321.5,36C 2273.28,26.3895 2224.62,20.2228 2175.5,17.5C 2170.43,15.8224 2165.1,15.1557 2159.5,15.5C 2115.81,11.9552 2072.48,6.62183 2029.5,-0.5 Z"/></g>
<g><path style="opacity:1" fill="#24568c" d="M 4855.5,1731.5 C 4854.74,1726.57 4853.41,1721.9 4851.5,1717.5C 4847.63,1686.3 4845.46,1654.97 4845,1623.5C 4838.54,1497.49 4852.21,1373.83 4886,1252.5C 4909.13,1176.32 4931.79,1099.99 4954,1023.5C 4973.16,950.488 4991.16,877.155 5008,803.5C 5013.18,784.929 5020.84,767.596 5031,751.5C 5047.25,732.11 5066.08,729.277 5087.5,743C 5099.59,753.439 5109.09,765.939 5116,780.5C 5120.79,791.991 5125.12,803.658 5129,815.5C 5143.78,884.403 5159.45,953.069 5176,1021.5C 5195.34,1095.54 5214.67,1169.54 5234,1243.5C 5246.53,1297.61 5255.86,1352.28 5262,1407.5C 5268.16,1500.85 5267.82,1594.18 5261,1687.5C 5251.75,1784.74 5199.25,1842.58 5103.5,1861C 5050.95,1869.1 5000.28,1862.76 4951.5,1842C 4902.87,1819.55 4870.87,1782.71 4855.5,1731.5 Z"/></g>
<g><path style="opacity:1" fill="#0f2a47" d="M 5258.5,1455.5 C 5260.28,1487.47 5260.94,1519.47 5260.5,1551.5C 5259.84,1599.57 5257.68,1647.57 5254,1695.5C 5245.92,1770.94 5206.42,1821.44 5135.5,1847C 5081.98,1861.53 5028.65,1860.86 4975.5,1845C 4905.38,1820.87 4865.21,1772.04 4855,1698.5C 4848.7,1612.13 4849.03,1525.8 4856,1439.5C 4863.81,1370.59 4877.48,1302.93 4897,1236.5C 4919.83,1161.04 4942.16,1085.38 4964,1009.5C 4972.8,975.854 4981.46,942.187 4990,908.5C 4997.61,874.098 5005.61,839.765 5014,805.5C 5017.97,791.259 5023.3,777.592 5030,764.5C 5044.24,739.147 5063.41,734.647 5087.5,751C 5098.94,762.705 5107.78,776.205 5114,791.5C 5117.64,801.415 5120.98,811.415 5124,821.5C 5150.6,946.742 5180.93,1071.08 5215,1194.5C 5231.94,1256.61 5244.61,1319.61 5253,1383.5C 5255.5,1407.45 5257.33,1431.45 5258.5,1455.5 Z"/></g>
<g><path style="opacity:1" fill="#24568b" d="M 1963.5,599.5 C 2041.36,598.366 2118.7,604.2 2195.5,617C 2323.31,641.563 2450.65,668.563 2577.5,698C 2602.4,705.115 2625.4,715.948 2646.5,730.5C 2678.09,756.377 2693.59,790.044 2693,831.5C 2694.33,920.837 2695.83,1010.17 2697.5,1099.5C 2698.46,1163.39 2695.3,1227.05 2688,1290.5C 2683.35,1328.09 2674.02,1364.43 2660,1399.5C 2647.14,1431.45 2626.97,1457.61 2599.5,1478C 2581.31,1489.26 2561.64,1496.92 2540.5,1501C 2464.35,1513.19 2391.35,1503.19 2321.5,1471C 2295.89,1458.53 2271.22,1444.53 2247.5,1429C 2225.11,1413.14 2203.11,1396.81 2181.5,1380C 2157.21,1360.04 2133.21,1339.71 2109.5,1319C 2026.72,1242.37 1941.72,1168.54 1854.5,1097.5C 1795.85,1051.88 1735.18,1009.05 1672.5,969C 1656.29,960.396 1639.96,952.063 1623.5,944C 1601.24,935.2 1579.24,925.867 1557.5,916C 1549.66,911.249 1542,906.249 1534.5,901C 1515.06,885.271 1506.06,864.771 1507.5,839.5C 1508.19,791.727 1521.69,748.06 1548,708.5C 1582.02,665.054 1626.52,638.887 1681.5,630C 1775.13,615.044 1869.13,604.877 1963.5,599.5 Z"/></g>
<g><path style="opacity:1" fill="#0f2a47" d="M 1951.5,606.5 C 2002.26,605.39 2052.92,606.89 2103.5,611C 2131.56,614.341 2159.56,618.008 2187.5,622C 2245.05,632.727 2302.39,644.06 2359.5,656C 2418.18,668.671 2476.84,681.338 2535.5,694C 2566.15,699.988 2595.48,709.654 2623.5,723C 2660.09,742.969 2680.93,773.802 2686,815.5C 2687.98,907.489 2689.48,999.489 2690.5,1091.5C 2691.35,1146.23 2689.85,1200.9 2686,1255.5C 2682.61,1287.84 2677.28,1319.84 2670,1351.5C 2663.63,1373.96 2655.29,1395.62 2645,1416.5C 2614,1471.1 2566.83,1498.6 2503.5,1499C 2431.77,1503.23 2364.44,1488.23 2301.5,1454C 2257.04,1428.53 2215.04,1399.53 2175.5,1367C 2159.35,1353.68 2143.35,1340.18 2127.5,1326.5C 2065.87,1270.74 2003.54,1215.24 1940.5,1160C 1859.14,1090.88 1773.81,1027.22 1684.5,969C 1671.5,961.163 1658.16,953.83 1644.5,947C 1617.03,935.3 1589.7,923.3 1562.5,911C 1546.56,903.657 1533.39,893.157 1523,879.5C 1516.11,866.414 1512.94,852.414 1513.5,837.5C 1514.24,777.22 1535.9,726.053 1578.5,684C 1606.7,660.067 1639.04,644.4 1675.5,637C 1767.15,622.208 1859.15,612.042 1951.5,606.5 Z"/></g>
<g><path style="opacity:1" fill="#24568c" d="M 1344.5,-0.5 C 1347.17,-0.5 1349.83,-0.5 1352.5,-0.5C 1323.23,31.6126 1294.06,63.9459 1265,96.5C 1251.71,113.457 1238.04,130.124 1224,146.5C 1194.68,184.818 1167.34,224.485 1142,265.5C 1106.74,326.596 1076.08,389.929 1050,455.5C 997.717,591.689 940.384,725.689 878,857.5C 871.383,874.533 868.217,892.199 868.5,910.5C 869.261,929.593 871.095,948.593 874,967.5C 876.831,997.821 869.164,1025.15 851,1049.5C 806.907,1104.68 762.573,1159.68 718,1214.5C 684.01,1254.15 649.677,1293.49 615,1332.5C 585.527,1363.31 555.36,1393.47 524.5,1423C 482.77,1461.03 440.437,1498.36 397.5,1535C 340.216,1582.94 282.883,1630.94 225.5,1679C 216.117,1686.72 206.451,1694.05 196.5,1701C 171.507,1715.29 144.507,1721.45 115.5,1719.5C 94.1811,1718.19 72.8478,1717.69 51.5,1718C 32.5143,1718.73 18.3477,1727.23 9,1743.5C 5.34992,1753.14 2.18325,1762.8 -0.5,1772.5C -0.5,1764.83 -0.5,1757.17 -0.5,1749.5C 7.92331,1727.6 23.9233,1715.1 47.5,1712C 72.176,1711.74 96.8426,1712.24 121.5,1713.5C 147.547,1713.76 171.881,1707.59 194.5,1695C 287.581,1619.08 379.581,1541.92 470.5,1463.5C 548.406,1394.76 620.573,1320.76 687,1241.5C 738.264,1179.88 788.764,1117.88 838.5,1055.5C 844.187,1047.64 849.687,1039.64 855,1031.5C 866.191,1011.58 870.524,990.251 868,967.5C 864.682,947.623 862.515,927.623 861.5,907.5C 861.733,889.501 865.233,872.168 872,855.5C 912.102,771.28 950.102,685.947 986,599.5C 1017.06,519.392 1049.73,440.058 1084,361.5C 1112.71,301.416 1146.04,244.083 1184,189.5C 1233.7,122.968 1287.2,59.6349 1344.5,-0.5 Z"/></g>
<g><path style="opacity:1" fill="#1e4976" d="M 1431.5,1449.5 C 1426.42,1451.08 1421.08,1451.75 1415.5,1451.5C 1420.62,1450.19 1425.95,1449.53 1431.5,1449.5 Z"/></g>
<g><path style="opacity:1" fill="#24568b" d="M 5260.5,1551.5 C 5260.94,1519.47 5260.28,1487.47 5258.5,1455.5C 5259.3,1454.05 5259.8,1452.38 5260,1450.5C 5260.33,1452.17 5260.67,1453.83 5261,1455.5C 5260.82,1450.13 5260.99,1444.8 5261.5,1439.5C 5261.95,1448.27 5262.95,1456.94 5264.5,1465.5C 5262.58,1472.67 5261.58,1480 5261.5,1487.5C 5262,1495.5 5262.5,1503.5 5263,1511.5C 5263.33,1508.83 5263.67,1506.17 5264,1503.5C 5264.67,1522.17 5264.67,1540.83 5264,1559.5C 5263.67,1551.5 5263.33,1543.5 5263,1535.5C 5262.67,1546.17 5262.33,1556.83 5262,1567.5C 5261.83,1561.98 5261.33,1556.65 5260.5,1551.5 Z"/></g>
<g><path style="opacity:1" fill="#24568c" d="M 2023.5,3374.5 C 2021.17,3374.5 2018.83,3374.5 2016.5,3374.5C 2016.88,3349.75 2022.05,3326.08 2032,3303.5C 2046.76,3273.42 2065.43,3246.09 2088,3221.5C 2108.81,3199.13 2130.65,3177.63 2153.5,3157C 2211.5,3107 2269.5,3057 2327.5,3007C 2379.94,2959.56 2430.44,2910.06 2479,2858.5C 2506,2827.5 2533,2796.5 2560,2765.5C 2584.2,2740.3 2609.37,2716.13 2635.5,2693C 2652.06,2677.11 2667.9,2660.61 2683,2643.5C 2716.35,2601.13 2727.35,2553.46 2716,2500.5C 2712.7,2492.87 2708.2,2486.03 2702.5,2480C 2689.81,2469.32 2675.81,2460.65 2660.5,2454C 2630.88,2442.36 2602.55,2428.36 2575.5,2412C 2556.74,2398.24 2539.57,2382.74 2524,2365.5C 2472.83,2305.5 2422.83,2244.5 2374,2182.5C 2314.71,2101.95 2256.38,2020.62 2199,1938.5C 2150.23,1874.95 2099.56,1812.95 2047,1752.5C 2008.49,1711.43 1971.49,1669.1 1936,1625.5C 1916.31,1598.8 1896.98,1571.8 1878,1544.5C 1860.56,1521.39 1840.72,1500.56 1818.5,1482C 1786.46,1459.73 1750.79,1448.06 1711.5,1447C 1628.74,1445.17 1546.07,1447.17 1463.5,1453C 1400.08,1456.96 1337.75,1467.29 1276.5,1484C 1113.45,1530.47 1040.95,1638.3 1059,1807.5C 1063.99,1837.45 1072.99,1866.11 1086,1893.5C 1093.97,1910.77 1102.97,1927.44 1113,1943.5C 1123.09,1958.67 1133.42,1973.67 1144,1988.5C 1191.41,2047.63 1239.08,2106.63 1287,2165.5C 1327.87,2218.74 1363.54,2275.41 1394,2335.5C 1422.7,2394.63 1444.2,2456.29 1458.5,2520.5C 1458.41,2523.15 1459.08,2525.49 1460.5,2527.5C 1476.69,2603.57 1493.19,2679.57 1510,2755.5C 1523.27,2820.36 1533.61,2885.69 1541,2951.5C 1557.84,3089.07 1529.51,3216.07 1456,3332.5C 1446.64,3346.67 1437.14,3360.67 1427.5,3374.5C 1424.83,3374.5 1422.17,3374.5 1419.5,3374.5C 1439.15,3347.21 1457.32,3318.88 1474,3289.5C 1514.36,3214.07 1535.69,3133.4 1538,3047.5C 1538.63,2991.18 1534.63,2935.18 1526,2879.5C 1517.97,2832.72 1509.31,2786.06 1500,2739.5C 1484.67,2668.84 1469.34,2598.17 1454,2527.5C 1440.68,2468.54 1421.68,2411.54 1397,2356.5C 1368.59,2296.32 1334.59,2239.65 1295,2186.5C 1248.49,2127.31 1201.16,2068.64 1153,2010.5C 1144.58,1998.65 1135.91,1986.99 1127,1975.5C 1105.6,1944.71 1087.26,1912.04 1072,1877.5C 1056.86,1839.68 1049.36,1800.34 1049.5,1759.5C 1049.48,1635.18 1105.81,1548.01 1218.5,1498C 1281.68,1472.44 1347.35,1456.94 1415.5,1451.5C 1421.08,1451.75 1426.42,1451.08 1431.5,1449.5C 1529.98,1440.63 1628.65,1438.13 1727.5,1442C 1759.12,1445.65 1788.45,1455.65 1815.5,1472C 1828.72,1482.02 1841.22,1492.86 1853,1504.5C 1879.92,1536.42 1904.92,1569.75 1928,1604.5C 1941.07,1621.61 1954.4,1638.61 1968,1655.5C 2001.67,1693.17 2035.33,1730.83 2069,1768.5C 2153.82,1866.31 2232.15,1968.97 2304,2076.5C 2374.41,2174.92 2449.41,2269.92 2529,2361.5C 2552.28,2388.9 2580.12,2410.4 2612.5,2426C 2639.74,2437.62 2666.41,2450.29 2692.5,2464C 2706.77,2473.26 2716.93,2485.76 2723,2501.5C 2732.98,2551.72 2723.31,2597.72 2694,2639.5C 2678.33,2659.18 2661.16,2677.68 2642.5,2695C 2615.78,2718.71 2589.95,2743.55 2565,2769.5C 2533.98,2805.51 2502.65,2841.18 2471,2876.5C 2426.13,2922.82 2379.96,2967.65 2332.5,3011C 2274.88,3060.61 2217.22,3110.27 2159.5,3160C 2138.09,3179.72 2117.26,3199.89 2097,3220.5C 2073.38,3246.12 2053.71,3274.45 2038,3305.5C 2028.26,3327.46 2023.43,3350.46 2023.5,3374.5 Z"/></g>
<g><path style="opacity:1" fill="#0f2a47" d="M 2016.5,3374.5 C 1820.17,3374.5 1623.83,3374.5 1427.5,3374.5C 1437.14,3360.67 1446.64,3346.67 1456,3332.5C 1529.51,3216.07 1557.84,3089.07 1541,2951.5C 1533.61,2885.69 1523.27,2820.36 1510,2755.5C 1493.19,2679.57 1476.69,2603.57 1460.5,2527.5C 1460.59,2524.85 1459.92,2522.51 1458.5,2520.5C 1444.2,2456.29 1422.7,2394.63 1394,2335.5C 1363.54,2275.41 1327.87,2218.74 1287,2165.5C 1239.08,2106.63 1191.41,2047.63 1144,1988.5C 1133.42,1973.67 1123.09,1958.67 1113,1943.5C 1102.97,1927.44 1093.97,1910.77 1086,1893.5C 1072.99,1866.11 1063.99,1837.45 1059,1807.5C 1040.95,1638.3 1113.45,1530.47 1276.5,1484C 1337.75,1467.29 1400.08,1456.96 1463.5,1453C 1546.07,1447.17 1628.74,1445.17 1711.5,1447C 1750.79,1448.06 1786.46,1459.73 1818.5,1482C 1840.72,1500.56 1860.56,1521.39 1878,1544.5C 1896.98,1571.8 1916.31,1598.8 1936,1625.5C 1971.49,1669.1 2008.49,1711.43 2047,1752.5C 2099.56,1812.95 2150.23,1874.95 2199,1938.5C 2256.38,2020.62 2314.71,2101.95 2374,2182.5C 2422.83,2244.5 2472.83,2305.5 2524,2365.5C 2539.57,2382.74 2556.74,2398.24 2575.5,2412C 2602.55,2428.36 2630.88,2442.36 2660.5,2454C 2675.81,2460.65 2689.81,2469.32 2702.5,2480C 2708.2,2486.03 2712.7,2492.87 2716,2500.5C 2727.35,2553.46 2716.35,2601.13 2683,2643.5C 2667.9,2660.61 2652.06,2677.11 2635.5,2693C 2609.37,2716.13 2584.2,2740.3 2560,2765.5C 2533,2796.5 2506,2827.5 2479,2858.5C 2430.44,2910.06 2379.94,2959.56 2327.5,3007C 2269.5,3057 2211.5,3107 2153.5,3157C 2130.65,3177.63 2108.81,3199.13 2088,3221.5C 2065.43,3246.09 2046.76,3273.42 2032,3303.5C 2022.05,3326.08 2016.88,3349.75 2016.5,3374.5 Z"/></g>
<g><path style="opacity:1" fill="#12375c" d="M 4851.5,1717.5 C 4853.41,1721.9 4854.74,1726.57 4855.5,1731.5C 4854.88,1731.39 4854.38,1731.06 4854,1730.5C 4852.55,1726.28 4851.72,1721.94 4851.5,1717.5 Z"/></g>
<g><path style="opacity:1" fill="#173f6a" d="M 836.5,1915.5 C 840.458,1915.25 844.124,1915.92 847.5,1917.5C 843.613,1917.35 839.946,1916.69 836.5,1915.5 Z"/></g>
<g><path style="opacity:1" fill="#0f2a47" d="M 980.5,3374.5 C 954.833,3374.5 929.167,3374.5 903.5,3374.5C 901.031,3373.68 898.365,3373.18 895.5,3373C 849.977,3370.75 804.644,3371.25 759.5,3374.5C 663.833,3374.5 568.167,3374.5 472.5,3374.5C 440.24,3353.49 407.907,3332.33 375.5,3311C 322.707,3275.53 273.541,3235.7 228,3191.5C 187.7,3149.55 152.367,3103.88 122,3054.5C 104.095,3025.03 86.4283,2995.36 69,2965.5C 45.518,2924.09 22.3514,2882.76 -0.5,2841.5C -0.5,2766.17 -0.5,2690.83 -0.5,2615.5C 1.89051,2586.37 2.89051,2557.04 2.5,2527.5C 2.33322,2495.49 1.83322,2463.49 1,2431.5C 0.826691,2425.98 0.326691,2420.65 -0.5,2415.5C -0.5,2405.17 -0.5,2394.83 -0.5,2384.5C 0.921673,2384.29 2.25501,2383.79 3.5,2383C 75.8601,2329.65 146.193,2273.65 214.5,2215C 254.821,2179.68 295.488,2144.68 336.5,2110C 377.73,2075.77 420.397,2043.44 464.5,2013C 513.664,1979.92 566.664,1954.59 623.5,1937C 686.418,1920.07 750.418,1914.4 815.5,1920C 944.151,1928.17 1041.98,1986.67 1109,2095.5C 1136.96,2144.11 1158.96,2195.44 1175,2249.5C 1189.59,2301.46 1201.26,2354.13 1210,2407.5C 1221.3,2481.77 1228.64,2556.43 1232,2631.5C 1236.76,2726.78 1225.76,2820.11 1199,2911.5C 1186.6,2949.64 1171.94,2986.98 1155,3023.5C 1123.85,3087.59 1091.52,3150.92 1058,3213.5C 1031.33,3266.63 1005.5,3320.3 980.5,3374.5 Z"/></g>
<g><path style="opacity:1" fill="#24568c" d="M 836.5,1915.5 C 839.946,1916.69 843.613,1917.35 847.5,1917.5C 912.324,1925.09 970.657,1948.43 1022.5,1987.5C 1059.14,2017.65 1089.97,2052.98 1115,2093.5C 1148.92,2153.24 1174.26,2216.57 1191,2283.5C 1225.53,2426.75 1241.19,2572.09 1238,2719.5C 1234.31,2803.37 1217.64,2884.37 1188,2962.5C 1169.59,3007.65 1149.26,3051.98 1127,3095.5C 1092.09,3162 1057.75,3228.66 1024,3295.5C 1011.6,3321.73 999.438,3348.06 987.5,3374.5C 985.167,3374.5 982.833,3374.5 980.5,3374.5C 1005.5,3320.3 1031.33,3266.63 1058,3213.5C 1091.52,3150.92 1123.85,3087.59 1155,3023.5C 1171.94,2986.98 1186.6,2949.64 1199,2911.5C 1225.76,2820.11 1236.76,2726.78 1232,2631.5C 1228.64,2556.43 1221.3,2481.77 1210,2407.5C 1201.26,2354.13 1189.59,2301.46 1175,2249.5C 1158.96,2195.44 1136.96,2144.11 1109,2095.5C 1041.98,1986.67 944.151,1928.17 815.5,1920C 750.418,1914.4 686.418,1920.07 623.5,1937C 566.664,1954.59 513.664,1979.92 464.5,2013C 420.397,2043.44 377.73,2075.77 336.5,2110C 295.488,2144.68 254.821,2179.68 214.5,2215C 146.193,2273.65 75.8601,2329.65 3.5,2383C 2.25501,2383.79 0.921673,2384.29 -0.5,2384.5C -0.5,2382.17 -0.5,2379.83 -0.5,2377.5C 15.1484,2366.19 30.8151,2354.86 46.5,2343.5C 133.015,2275.51 217.682,2205.01 300.5,2132C 329.858,2107.97 359.191,2083.97 388.5,2060C 429.34,2028.08 472.34,1999.41 517.5,1974C 617.439,1920.87 723.773,1901.37 836.5,1915.5 Z"/></g>
<g><path style="opacity:1" fill="#23558a" d="M -0.5,2415.5 C 0.326691,2420.65 0.826691,2425.98 1,2431.5C 1.83322,2463.49 2.33322,2495.49 2.5,2527.5C 2.89051,2557.04 1.89051,2586.37 -0.5,2615.5C -0.5,2548.83 -0.5,2482.17 -0.5,2415.5 Z"/></g>
<g><path style="opacity:1" fill="#183d6a" d="M 1458.5,2520.5 C 1459.92,2522.51 1460.59,2524.85 1460.5,2527.5C 1459.08,2525.49 1458.41,2523.15 1458.5,2520.5 Z"/></g>
<g><path style="opacity:1" fill="#235588" d="M 4318.5,2671.5 C 4318.5,2666.17 4318.5,2660.83 4318.5,2655.5C 4318.5,2634.17 4318.5,2612.83 4318.5,2591.5C 4318.5,2565.83 4318.5,2540.17 4318.5,2514.5C 4319.93,2514.12 4320.76,2513.12 4321,2511.5C 4324.33,2575.51 4324.33,2639.51 4321,2703.5C 4320.94,2670.17 4321.11,2636.84 4321.5,2603.5C 4321.53,2575.49 4321.03,2547.49 4320,2519.5C 4319.89,2548.83 4320.06,2578.16 4320.5,2607.5C 4320.72,2629.02 4320.06,2650.36 4318.5,2671.5 Z"/></g>
<g><path style="opacity:1" fill="#0f2a43" d="M 4318.5,2591.5 C 4318.5,2612.83 4318.5,2634.17 4318.5,2655.5C 4317.68,2657.97 4317.18,2660.64 4317,2663.5C 4316.33,2616.5 4316.33,2569.5 4317,2522.5C 4317.17,2545.67 4317.67,2568.67 4318.5,2591.5 Z"/></g>
<g><path style="opacity:1" fill="#24578f" d="M 4324.5,2527.5 C 4324.78,2599.51 4324.45,2671.51 4323.5,2743.5C 4322.78,2743.92 4322.28,2744.58 4322,2745.5C 4321.67,2751.5 4321.33,2757.5 4321,2763.5C 4319.96,2762.38 4319.29,2761.04 4319,2759.5C 4318.17,2754.19 4317.67,2748.86 4317.5,2743.5C 4318.31,2719.51 4318.64,2695.51 4318.5,2671.5C 4320.06,2650.36 4320.72,2629.02 4320.5,2607.5C 4320.06,2578.16 4319.89,2548.83 4320,2519.5C 4321.03,2547.49 4321.53,2575.49 4321.5,2603.5C 4321.11,2636.84 4320.94,2670.17 4321,2703.5C 4324.33,2639.51 4324.33,2575.51 4321,2511.5C 4320.76,2513.12 4319.93,2514.12 4318.5,2514.5C 4318.5,2514.17 4318.5,2513.83 4318.5,2513.5C 4318.86,2511.41 4319.52,2509.41 4320.5,2507.5C 4321.09,2507.71 4321.59,2508.04 4322,2508.5C 4322.86,2514.98 4323.7,2521.31 4324.5,2527.5 Z"/></g>
<g><path style="opacity:1" fill="#12385b" d="M 979.5,2779.5 C 980.114,2784.03 979.114,2788.03 976.5,2791.5C 977.508,2787.4 978.508,2783.4 979.5,2779.5 Z"/></g>
<g><path style="opacity:1" fill="#24568b" d="M 979.5,2779.5 C 978.508,2783.4 977.508,2787.4 976.5,2791.5C 968.807,2826.21 956.64,2859.21 940,2890.5C 927.767,2912.57 910.934,2930.23 889.5,2943.5C 887.326,2943.75 885.659,2944.75 884.5,2946.5C 861.297,2955.97 837.297,2958.14 812.5,2953C 778.854,2946.68 747.188,2935.01 717.5,2918C 620.857,2861.21 544.357,2784.37 488,2687.5C 473.294,2660.07 461.294,2631.41 452,2601.5C 442.835,2569.35 440.168,2536.68 444,2503.5C 451.369,2470.43 466.369,2441.43 489,2416.5C 523.339,2381.13 562.839,2353.3 607.5,2333C 686.191,2297.26 768.857,2279.93 855.5,2281C 885.737,2283.46 911.737,2295.12 933.5,2316C 960.941,2345.03 979.441,2379.2 989,2418.5C 999.005,2458.21 1003.5,2498.54 1002.5,2539.5C 1002.67,2620.3 995.003,2700.3 979.5,2779.5 Z"/></g>
<g><path style="opacity:1" fill="#0f2a47" d="M 823.5,2286.5 C 884.197,2282.43 929.364,2306.76 959,2359.5C 973.494,2387.19 983.494,2416.52 989,2447.5C 992.312,2466.02 994.312,2484.68 995,2503.5C 997.965,2586.72 992.632,2669.39 979,2751.5C 972.889,2788.28 962.889,2823.94 949,2858.5C 939.671,2880.66 927.171,2900.83 911.5,2919C 901.861,2928.15 891.194,2935.81 879.5,2942C 867.991,2946.89 855.991,2949.39 843.5,2949.5C 809.862,2948.26 777.862,2940.42 747.5,2926C 685.964,2895.48 631.464,2855.31 584,2805.5C 548.019,2767.18 517.019,2725.18 491,2679.5C 469.009,2639.53 455.009,2596.86 449,2551.5C 444.689,2509.4 455.022,2471.4 480,2437.5C 498.283,2414.21 519.45,2394.05 543.5,2377C 606.849,2335.36 676.182,2308.02 751.5,2295C 775.452,2290.5 799.452,2287.67 823.5,2286.5 Z"/></g>
<g><path style="opacity:1" fill="#0f2a47" d="M -0.5,2854.5 C 23.6291,2897.41 47.7957,2940.41 72,2983.5C 101.245,3035 133.245,3084.67 168,3132.5C 207.482,3181.65 251.982,3225.82 301.5,3265C 350.189,3301.68 400.522,3336.01 452.5,3368C 455.42,3369.95 458.087,3372.11 460.5,3374.5C 308.167,3374.5 155.833,3374.5 3.5,3374.5C 2.5,3372.83 1.16667,3371.5 -0.5,3370.5C -0.5,3198.5 -0.5,3026.5 -0.5,2854.5 Z"/></g>
<g><path style="opacity:1" fill="#183d64" d="M 889.5,2943.5 C 888.514,2945.41 886.848,2946.41 884.5,2946.5C 885.659,2944.75 887.326,2943.75 889.5,2943.5 Z"/></g>
<g><path style="opacity:1" fill="#24568c" d="M 5999.5,951.5 C 5999.5,953.5 5999.5,955.5 5999.5,957.5C 5966.19,954.914 5933.52,958.414 5901.5,968C 5845.12,985.062 5806.28,1020.9 5785,1075.5C 5771.87,1115.8 5763.87,1157.13 5761,1199.5C 5756.65,1271.72 5749.99,1343.72 5741,1415.5C 5728.25,1504.61 5698.91,1587.61 5653,1664.5C 5621.35,1712.82 5587.35,1759.49 5551,1804.5C 5501.74,1863.77 5445.91,1915.6 5383.5,1960C 5343.5,1986.67 5303.5,2013.33 5263.5,2040C 5190.42,2091.08 5120.76,2146.75 5054.5,2207C 5027.06,2230.21 4998.06,2251.21 4967.5,2270C 4920.12,2296.94 4871.45,2321.94 4821.5,2345C 4812.63,2350.27 4803.63,2355.27 4794.5,2360C 4778.67,2369.5 4763.67,2380.17 4749.5,2392C 4719.32,2419.91 4701.82,2454.41 4697,2495.5C 4694.87,2540.85 4695.2,2586.18 4698,2631.5C 4704.54,2748.17 4725.2,2862.17 4760,2973.5C 4779.53,3033.9 4806.53,3090.56 4841,3143.5C 4866.05,3180.88 4896.88,3212.71 4933.5,3239C 4964.83,3259.82 4999.17,3273.16 5036.5,3279C 5103.53,3286.08 5167.86,3276.42 5229.5,3250C 5277.33,3226.61 5320.33,3196.61 5358.5,3160C 5393.81,3125.03 5427.31,3088.53 5459,3050.5C 5510.72,2985.8 5562.72,2921.46 5615,2857.5C 5641.96,2826.2 5669.29,2795.2 5697,2764.5C 5763.89,2692.28 5836.06,2625.45 5913.5,2564C 5919,2560.41 5924.67,2557.08 5930.5,2554C 5943.42,2550.01 5956.42,2546.35 5969.5,2543C 5979.82,2538.29 5989.82,2533.13 5999.5,2527.5C 5999.5,2530.17 5999.5,2532.83 5999.5,2535.5C 5993.85,2537.63 5988.52,2540.46 5983.5,2544C 5978.17,2546 5972.83,2548 5967.5,2550C 5948.07,2552.69 5930.41,2559.69 5914.5,2571C 5865.22,2610.33 5817.89,2652 5772.5,2696C 5703.22,2765.35 5637.72,2838.18 5576,2914.5C 5525.08,2979.67 5472.75,3043.67 5419,3106.5C 5383.47,3146.46 5344.64,3182.63 5302.5,3215C 5245.5,3256.01 5181.83,3279.67 5111.5,3286C 5027.7,3295.38 4955.03,3271.71 4893.5,3215C 4859.66,3182.17 4831.49,3145 4809,3103.5C 4777.59,3043.26 4753.25,2980.26 4736,2914.5C 4702.85,2782.26 4687.18,2647.92 4689,2511.5C 4690.35,2476.46 4700.68,2444.46 4720,2415.5C 4739.92,2390.25 4764.08,2369.75 4792.5,2354C 4839.51,2329.41 4886.85,2305.41 4934.5,2282C 4970.65,2261.75 5004.98,2238.75 5037.5,2213C 5084.01,2170.82 5132.01,2130.48 5181.5,2092C 5244.27,2045.45 5308.6,2001.11 5374.5,1959C 5418.58,1927.84 5459.75,1893 5498,1854.5C 5555.44,1792.41 5606.77,1725.75 5652,1654.5C 5674.66,1614.96 5693.32,1573.29 5708,1529.5C 5725.25,1471.36 5736.92,1412.02 5743,1351.5C 5747.67,1292.83 5752.33,1234.16 5757,1175.5C 5760,1149.51 5764.66,1123.84 5771,1098.5C 5783.19,1048.54 5810.69,1009.71 5853.5,982C 5898.94,957.078 5947.6,946.912 5999.5,951.5 Z"/></g>
<g><path style="opacity:1" fill="#214e7e" d="M 5919.5,3112.5 C 5909.83,3112.33 5900.16,3112.5 5890.5,3113C 5893.12,3113.91 5892.95,3114.41 5890,3114.5C 5886.54,3113.71 5883.04,3113.38 5879.5,3113.5C 5887.62,3112.06 5895.95,3111.39 5904.5,3111.5C 5909.68,3111.5 5914.68,3111.83 5919.5,3112.5 Z"/></g>
<g><path style="opacity:1" fill="#0f2a47" d="M 5999.5,3127.5 C 5999.5,3209.5 5999.5,3291.5 5999.5,3373.5C 5970.18,3372.39 5940.84,3371.72 5911.5,3371.5C 5812,3370.5 5712.33,3370.17 5612.5,3370.5C 5612.5,3367.83 5612.5,3365.17 5612.5,3362.5C 5616.12,3343.15 5622.62,3324.82 5632,3307.5C 5672.5,3234.33 5730,3178.83 5804.5,3141C 5846.1,3122.17 5889.76,3114.84 5935.5,3119C 5957,3120.73 5978.33,3123.57 5999.5,3127.5 Z"/></g>
<g><path style="opacity:1" fill="#24578d" d="M 5919.5,3112.5 C 5946.49,3112.87 5973.15,3115.87 5999.5,3121.5C 5999.5,3123.5 5999.5,3125.5 5999.5,3127.5C 5978.33,3123.57 5957,3120.73 5935.5,3119C 5889.76,3114.84 5846.1,3122.17 5804.5,3141C 5730,3178.83 5672.5,3234.33 5632,3307.5C 5622.62,3324.82 5616.12,3343.15 5612.5,3362.5C 5611.52,3365.29 5611.19,3368.29 5611.5,3371.5C 5612.83,3371.5 5614.17,3371.5 5615.5,3371.5C 5708.67,3372.33 5802,3372.83 5895.5,3373C 5802,3373.17 5708.67,3373.67 5615.5,3374.5C 5612.17,3374.5 5608.83,3374.5 5605.5,3374.5C 5603.79,3373.26 5601.79,3372.59 5599.5,3372.5C 5060.13,3372.83 4522.13,3372.5 3985.5,3371.5C 4523.5,3371.5 5061.5,3371.5 5599.5,3371.5C 5601.5,3371.5 5603.5,3371.5 5605.5,3371.5C 5605.5,3370.17 5605.5,3368.83 5605.5,3367.5C 5606.58,3354.27 5609.74,3341.6 5615,3329.5C 5655.69,3240.92 5719.85,3175.42 5807.5,3133C 5830.41,3122.77 5854.41,3116.27 5879.5,3113.5C 5883.04,3113.38 5886.54,3113.71 5890,3114.5C 5892.95,3114.41 5893.12,3113.91 5890.5,3113C 5900.16,3112.5 5909.83,3112.33 5919.5,3112.5 Z"/></g>
<g><path style="opacity:1" fill="#24568c" d="M -0.5,2841.5 C 22.3514,2882.76 45.518,2924.09 69,2965.5C 86.4283,2995.36 104.095,3025.03 122,3054.5C 152.367,3103.88 187.7,3149.55 228,3191.5C 273.541,3235.7 322.707,3275.53 375.5,3311C 407.907,3332.33 440.24,3353.49 472.5,3374.5C 468.5,3374.5 464.5,3374.5 460.5,3374.5C 458.087,3372.11 455.42,3369.95 452.5,3368C 400.522,3336.01 350.189,3301.68 301.5,3265C 251.982,3225.82 207.482,3181.65 168,3132.5C 133.245,3084.67 101.245,3035 72,2983.5C 47.7957,2940.41 23.6291,2897.41 -0.5,2854.5C -0.5,2850.17 -0.5,2845.83 -0.5,2841.5 Z"/></g>
<g><path style="opacity:1" fill="#24578c" d="M 4317.5,2743.5 C 4317.67,2748.86 4318.17,2754.19 4319,2759.5C 4319.29,2761.04 4319.96,2762.38 4321,2763.5C 4321.33,2757.5 4321.67,2751.5 4322,2745.5C 4322.28,2744.58 4322.78,2743.92 4323.5,2743.5C 4321.06,2814.61 4308.9,2883.95 4287,2951.5C 4261.4,3024.68 4233.07,3096.68 4202,3167.5C 4189.28,3196.28 4174.94,3224.28 4159,3251.5C 4136.72,3286.78 4107.55,3314.95 4071.5,3336C 4046.85,3348.5 4021.51,3359.34 3995.5,3368.5C 3991.92,3368.98 3988.58,3369.98 3985.5,3371.5C 4522.13,3372.5 5060.13,3372.83 5599.5,3372.5C 5062.5,3373.17 4525.5,3373.83 3988.5,3374.5C 3984.83,3374.5 3981.17,3374.5 3977.5,3374.5C 3974.94,3373.51 3972.28,3372.51 3969.5,3371.5C 3966.01,3372.7 3962.68,3372.7 3959.5,3371.5C 3961.41,3371.78 3963.08,3371.45 3964.5,3370.5C 3987.41,3364.71 4009.74,3357.21 4031.5,3348C 4070.3,3333.11 4103.46,3310.27 4131,3279.5C 4145.4,3261.7 4158.07,3242.7 4169,3222.5C 4213.2,3130.57 4251.53,3036.24 4284,2939.5C 4303.68,2875.52 4314.85,2810.19 4317.5,2743.5 Z"/></g>
<g><path style="opacity:1" fill="#102849" d="M 3964.5,3370.5 C 3963.08,3371.45 3961.41,3371.78 3959.5,3371.5C 3549,3370.5 3138.33,3370.17 2727.5,3370.5C 3138.26,3369.22 3549.09,3368.55 3960,3368.5C 3961.11,3370.04 3962.61,3370.7 3964.5,3370.5 Z"/></g>
<g><path style="opacity:1" fill="#0b2a45" d="M 3995.5,3368.5 C 4530.17,3368.5 5064.83,3368.5 5599.5,3368.5C 5066.17,3369.17 4532.83,3369.83 3999.5,3370.5C 3997.14,3370.66 3994.81,3370.5 3992.5,3370C 3993.74,3369.77 3994.74,3369.27 3995.5,3368.5 Z"/></g>
<g><path style="opacity:1" fill="#10284a" d="M 5605.5,3367.5 C 5605.5,3368.83 5605.5,3370.17 5605.5,3371.5C 5603.5,3371.5 5601.5,3371.5 5599.5,3371.5C 5066.33,3370.5 4533,3370.17 3999.5,3370.5C 4532.83,3369.83 5066.17,3369.17 5599.5,3368.5C 5601.3,3367.23 5601.63,3367.57 5600.5,3369.5C 5601.69,3370.43 5603.02,3370.76 5604.5,3370.5C 5604.26,3369.21 5604.6,3368.21 5605.5,3367.5 Z"/></g>
<g><path style="opacity:1" fill="#10304d" d="M 2713.5,3368.5 C 2714.4,3369.21 2714.74,3370.21 2714.5,3371.5C 2649.5,3371.5 2584.5,3371.5 2519.5,3371.5C 2584.34,3371.17 2649.01,3370.17 2713.5,3368.5 Z"/></g>
<g><path style="opacity:1" fill="#11304d" d="M 2720.5,3369.5 C 2722.72,3370.37 2725.05,3370.7 2727.5,3370.5C 3138.33,3370.17 3549,3370.5 3959.5,3371.5C 3546.5,3371.5 3133.5,3371.5 2720.5,3371.5C 2720.5,3370.83 2720.5,3370.17 2720.5,3369.5 Z"/></g>
<g><path style="opacity:1" fill="#10304d" d="M 3995.5,3368.5 C 3994.74,3369.27 3993.74,3369.77 3992.5,3370C 3994.81,3370.5 3997.14,3370.66 3999.5,3370.5C 4533,3370.17 5066.33,3370.5 5599.5,3371.5C 5061.5,3371.5 4523.5,3371.5 3985.5,3371.5C 3988.58,3369.98 3991.92,3368.98 3995.5,3368.5 Z"/></g>
<g><path style="opacity:1" fill="#11304d" d="M 5612.5,3362.5 C 5612.5,3365.17 5612.5,3367.83 5612.5,3370.5C 5712.33,3370.17 5812,3370.5 5911.5,3371.5C 5812.83,3371.5 5714.17,3371.5 5615.5,3371.5C 5614.17,3371.5 5612.83,3371.5 5611.5,3371.5C 5611.19,3368.29 5611.52,3365.29 5612.5,3362.5 Z"/></g>
<g><path style="opacity:1" fill="#255588" d="M -0.5,3370.5 C 1.16667,3371.5 2.5,3372.83 3.5,3374.5C 2.16667,3374.5 0.833333,3374.5 -0.5,3374.5C -0.5,3373.17 -0.5,3371.83 -0.5,3370.5 Z"/></g>
<g><path style="opacity:1" fill="#23568d" d="M 903.5,3374.5 C 855.5,3374.5 807.5,3374.5 759.5,3374.5C 804.644,3371.25 849.977,3370.75 895.5,3373C 898.365,3373.18 901.031,3373.68 903.5,3374.5 Z"/></g>
<g><path style="opacity:1" fill="#25588e" d="M 2720.5,3371.5 C 3133.5,3371.5 3546.5,3371.5 3959.5,3371.5C 3962.68,3372.7 3966.01,3372.7 3969.5,3371.5C 3972.28,3372.51 3974.94,3373.51 3977.5,3374.5C 3472.83,3374.5 2968.17,3374.5 2463.5,3374.5C 2481.96,3372.51 2500.63,3371.51 2519.5,3371.5C 2584.5,3371.5 2649.5,3371.5 2714.5,3371.5C 2714.74,3370.21 2714.4,3369.21 2713.5,3368.5C 2713.5,3367.17 2713.5,3365.83 2713.5,3364.5C 2715.02,3361.42 2715.85,3358.09 2716,3354.5C 2716.33,3358.83 2716.67,3363.17 2717,3367.5C 2717.42,3369.55 2718.58,3370.88 2720.5,3371.5 Z"/></g>
<g><path style="opacity:1" fill="#27578f" d="M 5599.5,3372.5 C 5601.79,3372.59 5603.79,3373.26 5605.5,3374.5C 5066.5,3374.5 4527.5,3374.5 3988.5,3374.5C 4525.5,3373.83 5062.5,3373.17 5599.5,3372.5 Z"/></g>
<g><path style="opacity:1" fill="#26578f" d="M 5615.5,3371.5 C 5714.17,3371.5 5812.83,3371.5 5911.5,3371.5C 5940.84,3371.72 5970.18,3372.39 5999.5,3373.5C 5999.5,3373.83 5999.5,3374.17 5999.5,3374.5C 5871.5,3374.5 5743.5,3374.5 5615.5,3374.5C 5708.67,3373.67 5802,3373.17 5895.5,3373C 5802,3372.83 5708.67,3372.33 5615.5,3371.5 Z"/></g>
</svg>
